<svg width="124" height="124" viewBox="0 0 124 124" fill="none" xmlns="http://www.w3.org/2000/svg">
<g clip-path="url(#clip0_25_608)">
<path d="M61.9482 10.3333C33.4282 10.3333 10.3333 33.48 10.3333 62C10.3333 90.52 33.4282 113.667 61.9482 113.667C90.5199 113.667 113.667 90.52 113.667 62C113.667 33.48 90.5199 10.3333 61.9482 10.3333ZM61.9999 103.333C39.1632 103.333 20.6666 84.8367 20.6666 62C20.6666 39.1633 39.1632 20.6667 61.9999 20.6667C84.8366 20.6667 103.333 39.1633 103.333 62C103.333 84.8367 84.8366 103.333 61.9999 103.333Z" fill="#321E41"/>
<path d="M64.5833 36.1667H56.8333V67.1667L83.9583 83.4417L87.8333 77.0867L64.5833 63.2917V36.1667Z" fill="#321E41"/>
</g>
<defs>
<clipPath id="clip0_25_608">
<rect width="124" height="124" fill="white"/>
</clipPath>
</defs>
</svg>
