<svg width="162" height="162" viewBox="0 0 162 162" fill="none" xmlns="http://www.w3.org/2000/svg">
<path d="M36.1706 54.4655C36.1706 59.7724 31.8413 64.1017 26.5344 64.1017C21.2275 64.1017 16.8982 59.7724 16.8982 54.4655C16.8982 49.1586 21.2275 44.8293 26.5344 44.8293C31.8413 44.8293 36.1706 49.1586 36.1706 54.4655Z" fill="white"/>
<path d="M26.5345 65.4983C20.3896 65.4983 15.5017 60.4707 15.5017 54.4655C15.5017 48.3207 20.5293 43.4328 26.5345 43.4328C32.6793 43.4328 37.5672 48.4603 37.5672 54.4655C37.5672 60.6103 32.6793 65.4983 26.5345 65.4983ZM26.5345 46.3655C22.0655 46.3655 18.4345 49.9966 18.4345 54.4655C18.4345 58.9345 22.0655 62.5655 26.5345 62.5655C31.0034 62.5655 34.6345 58.9345 34.6345 54.4655C34.6345 49.9966 31.0034 46.3655 26.5345 46.3655Z" fill="#321E41"/>
<path d="M48.0413 81.1397C49.8568 89.9379 48.0413 117.171 48.0413 117.171L26.3948 105.579L37.8465 99.4345L26.5344 63.9621C26.5344 63.9621 26.5344 63.9621 26.3948 63.9621C28.0706 63.8224 44.2706 63.1241 48.0413 81.1397Z" fill="#FF294D"/>
<path d="M26.5345 63.9621L37.8466 99.4345L26.3948 105.579L14.9431 99.4345L26.2552 63.9621C26.2552 63.9621 26.2552 63.9621 26.3948 63.9621C26.5345 63.9621 26.5345 63.9621 26.5345 63.9621Z" fill="#CAFF00"/>
<path d="M26.3949 105.579L4.7483 117.171C4.7483 117.171 2.93279 89.9379 4.7483 81.1397C8.51899 63.2638 24.719 63.9621 26.3949 64.1017C26.2552 64.1017 26.2552 64.1017 26.2552 64.1017L14.9431 99.5741L26.3949 105.579Z" fill="#FF294D"/>
<path d="M4.74833 118.567C4.46902 118.567 4.18971 118.567 4.05005 118.428C3.63109 118.148 3.35178 117.729 3.35178 117.171C3.21212 116.053 1.53626 89.6586 3.35178 80.7207C5.4466 70.6655 11.3121 66.3362 15.7811 64.381C20.8087 62.1466 25.6966 62.4259 26.5345 62.4259C26.6742 62.4259 26.6742 62.4259 26.6742 62.4259C27.2328 62.4259 27.7914 62.8448 27.9311 63.4035L39.2432 98.8759C39.5225 99.5741 39.1035 100.272 38.5449 100.691L5.4466 118.428C5.16729 118.567 4.88798 118.567 4.74833 118.567ZM25.138 65.4983C21.2276 65.4983 9.21729 66.7552 6.14488 81.419C4.60867 88.4017 5.58626 108.093 6.00523 114.797L25.6966 104.322L36.1707 98.7362L25.5569 65.3586C25.4173 65.4983 25.2776 65.4983 25.138 65.4983Z" fill="#321E41"/>
<path d="M48.0413 118.567C47.762 118.567 47.6223 118.567 47.343 118.428L14.2448 100.831C13.5465 100.552 13.2672 99.7138 13.5465 99.0155L24.8586 63.5431C24.9982 62.9845 25.5568 62.5655 26.1155 62.5655C26.1155 62.5655 26.1155 62.5655 26.2551 62.5655C27.2327 62.5655 31.981 62.2862 37.0086 64.5207C41.4775 66.4759 47.343 70.9448 49.4379 80.8603C51.2534 89.7983 49.5775 116.193 49.4379 117.31C49.4379 117.869 49.1586 118.288 48.7396 118.567C48.5999 118.567 48.3206 118.567 48.0413 118.567ZM16.6189 98.7362L27.093 104.322L46.7844 114.797C47.2034 108.093 48.181 88.5414 46.6448 81.419C43.4327 66.3362 31.0034 65.3586 27.3723 65.4983L16.6189 98.7362Z" fill="#321E41"/>
<path d="M64.5208 94.1276C63.2639 94.1276 62.1467 93.8483 61.1691 93.2897C60.1915 92.731 59.4932 91.8931 58.9346 90.7759C58.376 89.6586 58.2363 88.2621 58.2363 86.5862C58.2363 84.9103 58.5156 83.5138 58.9346 82.2569C59.4932 81.1397 60.1915 80.1621 61.1691 79.6034C62.1467 79.0448 63.2639 78.6259 64.5208 78.6259C65.7777 78.6259 66.8949 78.9052 67.7329 79.4638C68.5708 80.0224 69.2691 80.8603 69.8277 81.9776L67.7329 83.0948C67.4536 82.3966 67.0346 81.8379 66.476 81.419C65.9174 81 65.2191 80.7207 64.3812 80.7207C63.2639 80.7207 62.2863 81.1397 61.588 81.9776C60.8898 82.8155 60.6105 83.9328 60.6105 85.3293V87.5638C60.6105 88.9603 60.8898 90.0776 61.588 90.7759C62.2863 91.6138 63.1243 91.8931 64.3812 91.8931C65.2191 91.8931 66.057 91.6138 66.6156 91.1948C67.1743 90.7759 67.5932 90.0776 67.8725 89.3793L69.8277 90.4966C69.2691 91.6138 68.5708 92.4517 67.7329 93.0103C66.8949 93.8483 65.7777 94.1276 64.5208 94.1276Z" fill="#321E41"/>
<path d="M84.0724 93.8483H81.5586L80.3017 89.7983H74.7155L73.319 93.8483H70.8052L75.9724 78.9052H79.0448L84.0724 93.8483ZM79.6035 87.7034L78.2069 83.2345L77.5086 81H77.369L76.6707 83.2345L75.1345 87.7034H79.6035Z" fill="#321E41"/>
<path d="M88.402 87.8431V93.8483H86.0278V78.9052H92.452C93.2899 78.9052 94.1278 79.0448 94.8261 79.4638C95.5244 79.8828 95.9434 80.3017 96.3623 81C96.7813 81.6983 96.9209 82.5362 96.9209 83.3741C96.9209 84.3517 96.6416 85.3293 96.2227 86.0276C95.664 86.7259 94.9658 87.2845 94.1278 87.5638L97.3399 93.8483H94.6865L91.7537 87.8431H88.402ZM88.402 85.7483H92.3123C92.7313 85.7483 93.0106 85.6086 93.2899 85.469C93.5692 85.3293 93.8485 85.05 93.9882 84.7707C94.1278 84.4914 94.2675 84.2121 94.2675 83.7931V82.8155C94.2675 82.3966 94.1278 82.1172 93.9882 81.8379C93.8485 81.5586 93.5692 81.419 93.2899 81.2793C93.0106 81.1397 92.5916 81 92.3123 81H88.402V85.7483Z" fill="#321E41"/>
<path d="M109.071 93.8483H99.4346V78.9052H109.071V81H101.948V85.1897H108.512V87.2845H101.948V91.6138H109.071V93.8483Z" fill="#321E41"/>
<path d="M121.221 93.8483H111.724V78.9052H121.36V81H114.238V85.1897H120.802V87.2845H114.238V91.6138H121.36V93.8483H121.221Z" fill="#321E41"/>
<path d="M126.388 87.8431V93.8483H124.014V78.9052H130.438C131.276 78.9052 132.114 79.0448 132.812 79.4638C133.51 79.8828 133.929 80.3017 134.348 81C134.767 81.6983 134.907 82.5362 134.907 83.3741C134.907 84.3517 134.627 85.3293 134.208 86.0276C133.65 86.7259 132.952 87.2845 132.114 87.5638L135.326 93.8483H132.672L129.74 87.8431H126.388ZM126.388 85.7483H130.298C130.717 85.7483 130.996 85.6086 131.276 85.469C131.555 85.3293 131.834 85.05 131.974 84.7707C132.114 84.4914 132.253 84.2121 132.253 83.7931V82.8155C132.253 82.3966 132.114 82.1172 131.974 81.8379C131.834 81.5586 131.555 81.419 131.276 81.2793C130.996 81.1397 130.577 81 130.298 81H126.388V85.7483Z" fill="#321E41"/>
<path d="M68.5708 115.914H58.9346V100.971H68.5708V103.066H61.4484V107.255H68.0122V109.35H61.4484V113.679H68.5708V115.914Z" fill="#321E41"/>
<path d="M70.2466 115.914L75.1345 108.233L70.3862 100.971H73.1793L76.5311 106.557L80.0224 100.971H82.6759L77.9276 108.233L82.8155 115.914H80.0224L76.3914 109.909L72.9 115.914H70.2466Z" fill="#321E41"/>
<path d="M87.2848 115.914H84.9106V100.971H91.3348C92.3124 100.971 93.0106 101.11 93.7089 101.529C94.4072 101.948 94.8262 102.367 95.2451 103.066C95.5244 103.764 95.8037 104.602 95.8037 105.44C95.8037 106.278 95.6641 107.116 95.2451 107.814C94.9658 108.512 94.4072 109.071 93.7089 109.35C93.0106 109.769 92.3124 109.909 91.3348 109.909H87.2848V115.914ZM87.2848 103.066V107.814H91.1951C91.6141 107.814 91.8934 107.674 92.1727 107.534C92.452 107.395 92.7313 107.116 92.871 106.836C93.0106 106.557 93.1503 106.278 93.1503 105.859V104.881C93.1503 104.462 93.0106 104.183 92.871 103.903C92.7313 103.624 92.452 103.484 92.1727 103.345C91.8934 103.205 91.4744 103.066 91.1951 103.066H87.2848Z" fill="#321E41"/>
<path d="M106.278 115.914H97.7588V100.971H100.133V113.819H106.278V115.914Z" fill="#321E41"/>
<path d="M113.68 116.193C112.423 116.193 111.305 115.914 110.328 115.355C109.35 114.797 108.652 113.819 108.093 112.702C107.535 111.584 107.255 110.188 107.255 108.512C107.255 106.836 107.535 105.44 108.093 104.322C108.652 103.205 109.35 102.367 110.328 101.669C111.305 101.11 112.423 100.831 113.68 100.831C114.936 100.831 116.193 101.11 117.171 101.669C118.148 102.228 118.847 103.066 119.405 104.322C119.964 105.44 120.243 106.836 120.243 108.512C120.243 110.188 119.964 111.584 119.405 112.702C118.847 113.819 118.148 114.797 117.171 115.355C116.193 115.914 115.076 116.193 113.68 116.193ZM113.68 114.098C114.517 114.098 115.216 113.959 115.774 113.54C116.333 113.121 116.752 112.702 117.171 112.003C117.45 111.305 117.73 110.607 117.73 109.629V107.255C117.73 106.278 117.59 105.579 117.171 104.881C116.892 104.183 116.333 103.764 115.774 103.345C115.216 102.926 114.517 102.786 113.68 102.786C112.981 102.786 112.283 102.926 111.724 103.345C111.166 103.764 110.747 104.183 110.328 104.881C110.048 105.579 109.909 106.278 109.909 107.255V109.629C109.909 110.467 110.048 111.305 110.328 112.003C110.607 112.702 111.166 113.121 111.724 113.54C112.283 113.819 112.981 114.098 113.68 114.098Z" fill="#321E41"/>
<path d="M125.131 109.909V115.914H122.757V100.971H129.181C130.019 100.971 130.857 101.11 131.555 101.529C132.253 101.948 132.672 102.367 133.091 103.066C133.51 103.764 133.65 104.602 133.65 105.44C133.65 106.417 133.371 107.395 132.952 108.093C132.393 108.791 131.695 109.35 130.857 109.629L134.069 115.914H131.415L128.483 109.909H125.131ZM125.131 107.814H129.041C129.46 107.814 129.74 107.674 130.019 107.534C130.298 107.395 130.578 107.116 130.717 106.836C130.857 106.557 130.996 106.278 130.996 105.859V104.881C130.996 104.462 130.857 104.183 130.717 103.903C130.578 103.624 130.298 103.484 130.019 103.345C129.74 103.205 129.321 103.066 129.041 103.066H125.131V107.814Z" fill="#321E41"/>
<path d="M145.8 115.914H136.164V100.971H145.8V103.066H138.678V107.255H145.242V109.35H138.678V113.679H145.8V115.914Z" fill="#321E41"/>
<path d="M150.828 109.909V115.914H148.454V100.971H154.878C155.716 100.971 156.554 101.11 157.252 101.529C157.95 101.948 158.369 102.367 158.788 103.066C159.207 103.764 159.347 104.602 159.347 105.44C159.347 106.417 159.067 107.395 158.648 108.093C158.09 108.791 157.392 109.35 156.554 109.629L159.766 115.914H157.112L154.179 109.909H150.828ZM150.828 107.814H154.738C155.157 107.814 155.436 107.674 155.716 107.534C155.995 107.395 156.274 107.116 156.414 106.836C156.554 106.557 156.693 106.278 156.693 105.859V104.881C156.693 104.462 156.554 104.183 156.414 103.903C156.274 103.624 155.995 103.484 155.716 103.345C155.436 103.205 155.017 103.066 154.738 103.066H150.828V107.814Z" fill="#321E41"/>
</svg>
