<svg width="185" height="67" viewBox="0 0 185 67" fill="none" xmlns="http://www.w3.org/2000/svg">
<path d="M87.6777 19.4855C87.6502 17.6475 88.263 15.8532 89.4194 14.3859C90.5759 12.9186 92.2099 11.8621 94.0635 11.3832C95.9171 10.9043 97.8845 11.0304 99.6549 11.7415C101.425 12.4527 102.898 13.7083 103.84 15.31C104.06 15.6805 104.121 16.1188 104.009 16.5317C103.897 16.9445 103.622 17.2993 103.241 17.5206C102.837 17.7174 102.372 17.7678 101.932 17.6625C101.492 17.5572 101.107 17.3032 100.847 16.9475C100.4 16.1728 99.7431 15.5281 98.9453 15.0813C98.1476 14.6346 97.2386 14.4024 96.3145 14.4094C95.3906 14.4025 94.4808 14.6268 93.6753 15.0602C92.8699 15.4936 92.1967 16.121 91.7225 16.8803C91.2484 17.6395 90.9896 18.5042 90.9721 19.3886C90.9545 20.2731 91.1786 21.1466 91.6222 21.9226C92.0658 22.6985 92.7136 23.35 93.5012 23.8125C94.2888 24.275 95.189 24.5323 96.1125 24.5591C97.0361 24.5858 97.9509 24.381 98.7662 23.965C99.5816 23.549 100.269 22.9361 100.761 22.1873C100.883 22.0024 101.042 21.8426 101.229 21.7175C101.416 21.5923 101.627 21.5042 101.85 21.4584C102.073 21.4127 102.304 21.4101 102.528 21.4509C102.752 21.4917 102.965 21.575 103.155 21.696C103.342 21.8189 103.501 21.9759 103.623 22.1579C103.746 22.34 103.829 22.5436 103.869 22.7568C103.909 22.97 103.904 23.1886 103.855 23.4C103.806 23.6115 103.713 23.8115 103.583 23.9884C102.809 25.1585 101.734 26.1191 100.461 26.7784C99.1889 27.4377 97.7612 27.7738 96.3145 27.7545C94.0239 27.7545 91.8271 26.8833 90.2074 25.3326C88.5877 23.7818 87.6777 21.6786 87.6777 19.4855Z" fill="#321E41"/>
<path d="M122.909 19.5674V26.0352C122.921 26.2534 122.885 26.4715 122.804 26.6756C122.722 26.8796 122.597 27.0649 122.435 27.2193C122.274 27.3738 122.08 27.494 121.867 27.5721C121.654 27.6502 121.426 27.6845 121.199 27.6727C120.767 27.6335 120.365 27.4462 120.066 27.1452C119.767 26.8442 119.593 26.45 119.574 26.0352C118.139 27.178 116.307 27.7624 114.443 27.6727C113.31 27.7056 112.181 27.5202 111.125 27.1276C110.068 26.7351 109.104 26.1432 108.29 25.3873C107.477 24.6313 106.83 23.7267 106.389 22.7269C105.947 21.7272 105.72 20.6527 105.721 19.5674C105.71 18.4638 105.927 17.3691 106.36 16.3464C106.793 15.3238 107.434 14.3935 108.245 13.6094C109.056 12.8252 110.022 12.2027 111.085 11.778C112.149 11.3532 113.29 11.1345 114.443 11.1345C119.317 11.1345 122.909 14.9007 122.909 19.5674ZM119.574 19.5674C119.597 18.9047 119.481 18.2443 119.235 17.6248C118.988 17.0052 118.615 16.4388 118.138 15.9587C117.66 15.4786 117.087 15.0943 116.453 14.8283C115.819 14.5623 115.135 14.4199 114.443 14.4094C113.021 14.4305 111.664 14.9807 110.658 15.9435C109.653 16.9063 109.078 18.206 109.056 19.5674C109.067 20.2303 109.216 20.8845 109.493 21.4918C109.771 22.0991 110.173 22.6474 110.674 23.1047C111.175 23.5619 111.767 23.919 112.414 24.1551C113.061 24.3911 113.751 24.5015 114.443 24.4797C115.12 24.4907 115.792 24.3713 116.42 24.1283C117.048 23.8854 117.618 23.5239 118.097 23.0656C118.576 22.6072 118.953 22.0612 119.207 21.4602C119.461 20.8592 119.585 20.2155 119.574 19.5674Z" fill="#321E41"/>
<path d="M135.394 12.772C135.394 13.2063 135.213 13.6227 134.893 13.9298C134.572 14.2369 134.137 14.4094 133.683 14.4094C132.991 14.4093 132.306 14.5412 131.667 14.7973C131.029 15.0533 130.45 15.4286 129.964 15.901C129.479 16.3735 129.096 16.9337 128.839 17.5491C128.582 18.1645 128.456 18.8228 128.467 19.4855V26.1171C128.467 26.5514 128.287 26.9679 127.966 27.2749C127.645 27.582 127.21 27.7545 126.757 27.7545C126.529 27.7664 126.301 27.7321 126.088 27.654C125.875 27.5759 125.681 27.4557 125.52 27.3012C125.359 27.1467 125.233 26.9615 125.152 26.7574C125.07 26.5534 125.034 26.3352 125.047 26.1171V19.4855C125.035 18.3927 125.25 17.3086 125.679 16.2959C126.108 15.2832 126.743 14.3619 127.546 13.5854C128.349 12.8088 129.305 12.1924 130.358 11.7717C131.412 11.3511 132.542 11.1345 133.683 11.1345C134.137 11.1345 134.572 11.3071 134.893 11.6141C135.213 11.9212 135.394 12.3377 135.394 12.772Z" fill="#321E41"/>
<path d="M152.667 19.4036C152.667 19.8379 152.487 20.2544 152.166 20.5614C151.845 20.8685 151.41 21.041 150.957 21.041H138.985C139.355 22.0415 140.037 22.9085 140.94 23.5238C141.843 24.1392 142.922 24.473 144.03 24.4797C145.405 24.4813 146.747 24.0815 147.878 23.3335C148.085 23.238 148.31 23.1834 148.54 23.1731C148.77 23.1627 148.999 23.1968 149.214 23.2732C149.43 23.3496 149.627 23.4669 149.794 23.6179C149.961 23.7689 150.095 23.9506 150.187 24.1522C150.323 24.547 150.312 24.9746 150.156 25.3626C150.001 25.7506 149.709 26.075 149.332 26.2808C147.786 27.3255 145.92 27.8443 144.03 27.7545C142.818 27.8699 141.594 27.7408 140.437 27.3757C139.28 27.0106 138.216 26.4175 137.313 25.6346C136.41 24.8518 135.688 23.8965 135.195 22.8304C134.701 21.7642 134.446 20.6108 134.446 19.4445C134.446 18.2782 134.701 17.1249 135.195 16.0587C135.688 14.9926 136.41 14.0373 137.313 13.2544C138.216 12.4716 139.28 11.8785 140.437 11.5134C141.594 11.1482 142.818 11.0192 144.03 11.1345C145.171 11.1122 146.304 11.3109 147.363 11.7186C148.421 12.1262 149.383 12.7345 150.189 13.5068C150.996 14.2792 151.631 15.1997 152.057 16.213C152.483 17.2263 152.69 18.3116 152.667 19.4036ZM138.985 17.7662H148.99C148.669 16.7595 148.007 15.8835 147.11 15.2759C146.212 14.6683 145.129 14.3635 144.03 14.4094C142.929 14.3981 141.852 14.7153 140.948 15.3168C140.044 15.9183 139.358 16.7744 138.985 17.7662Z" fill="#321E41"/>
<path d="M172.078 19.4036C172.078 19.8379 171.898 20.2544 171.577 20.5614C171.257 20.8685 170.822 21.041 170.368 21.041H158.482C158.836 22.035 159.503 22.8994 160.391 23.5152C161.279 24.1311 162.345 24.468 163.442 24.4797C164.818 24.492 166.164 24.0912 167.29 23.3335C167.497 23.238 167.722 23.1834 167.951 23.1731C168.181 23.1627 168.41 23.1968 168.626 23.2732C168.841 23.3496 169.038 23.4669 169.206 23.6179C169.373 23.7689 169.506 23.9506 169.599 24.1522C169.752 24.5457 169.75 24.9796 169.593 25.3718C169.435 25.764 169.133 26.0874 168.743 26.2808C167.198 27.3255 165.331 27.8443 163.442 27.7545C162.229 27.8699 161.005 27.7408 159.849 27.3757C158.692 27.0106 157.627 26.4175 156.724 25.6346C155.821 24.8518 155.1 23.8965 154.606 22.8304C154.112 21.7642 153.857 20.6108 153.857 19.4445C153.857 18.2782 154.112 17.1249 154.606 16.0587C155.1 14.9926 155.821 14.0373 156.724 13.2544C157.627 12.4716 158.692 11.8785 159.849 11.5134C161.005 11.1482 162.229 11.0192 163.442 11.1345C164.582 11.1122 165.716 11.3109 166.774 11.7186C167.833 12.1262 168.794 12.7345 169.601 13.5068C170.407 14.2792 171.043 15.1997 171.468 16.213C171.894 17.2263 172.102 18.3116 172.078 19.4036ZM158.482 17.7662H168.401C168.08 16.7595 167.419 15.8835 166.521 15.2759C165.623 14.6683 164.54 14.3635 163.442 14.4094C162.352 14.4031 161.288 14.7234 160.399 15.3254C159.509 15.9274 158.839 16.7809 158.482 17.7662Z" fill="#321E41"/>
<path d="M184.563 12.772C184.563 13.2063 184.383 13.6227 184.062 13.9298C183.742 14.2369 183.307 14.4094 182.853 14.4094C181.447 14.4094 180.098 14.9442 179.104 15.8962C178.11 16.8481 177.551 18.1392 177.551 19.4855V26.1171C177.563 26.3282 177.529 26.5393 177.453 26.7376C177.376 26.9358 177.259 27.1171 177.107 27.2704C176.955 27.4236 176.772 27.5456 176.569 27.6288C176.366 27.7121 176.147 27.7548 175.926 27.7545C175.695 27.7656 175.463 27.7315 175.246 27.6542C175.028 27.5769 174.829 27.4581 174.661 27.3049C174.493 27.1517 174.36 26.9674 174.269 26.7632C174.177 26.559 174.13 26.3392 174.131 26.1171V19.4855C174.131 17.2707 175.05 15.1466 176.685 13.5805C178.321 12.0144 180.54 11.1345 182.853 11.1345C183.307 11.1345 183.742 11.3071 184.062 11.6141C184.383 11.9212 184.563 12.3377 184.563 12.772Z" fill="#321E41"/>
<path d="M97.9392 50.3512C97.9392 51.6757 97.3897 52.946 96.4114 53.8826C95.4332 54.8192 94.1064 55.3454 92.723 55.3454C91.6003 55.3035 90.5172 54.9368 89.6165 54.2937C88.7159 53.6506 88.0399 52.7613 87.6777 51.743C87.6143 51.533 87.5978 51.3125 87.6293 51.096C87.6608 50.8794 87.7397 50.6717 87.8607 50.4863C87.9817 50.3008 88.1422 50.1419 88.3317 50.0199C88.5212 49.8979 88.7354 49.8155 88.9604 49.7781C89.9011 49.6143 90.5852 50.2693 91.0127 51.088C91.1546 51.4025 91.396 51.6664 91.7028 51.8427C92.0096 52.0189 92.3664 52.0986 92.723 52.0705C92.9588 52.0705 93.1923 52.026 93.4102 51.9396C93.6281 51.8532 93.826 51.7266 93.9928 51.5669C94.1595 51.4073 94.2918 51.2177 94.382 51.0091C94.4723 50.8005 94.5187 50.577 94.5187 50.3512C94.5187 49.8952 94.3295 49.4579 93.9928 49.1354C93.656 48.813 93.1992 48.6319 92.723 48.6319C91.3758 48.5909 90.0955 48.0602 89.1424 47.1477C88.1893 46.2352 87.635 45.0094 87.5922 43.7196C87.5809 43.0676 87.7052 42.42 87.958 41.8145C88.2107 41.2091 88.5869 40.6578 89.0644 40.193C89.542 39.7281 90.1114 39.3589 90.7396 39.107C91.3677 38.855 92.0419 38.7253 92.723 38.7254C95.2028 38.7254 97.4262 40.2809 97.7682 42.164C97.8454 42.5969 97.7466 43.0416 97.4922 43.4069C97.2378 43.7723 96.847 44.0306 96.4 44.1289C95.9617 44.1881 95.5156 44.0974 95.1402 43.8728C94.7648 43.6482 94.4842 43.304 94.3477 42.9008C94.1767 42.3277 93.5781 42.0002 92.723 42.0002C92.491 42 92.2614 42.0449 92.0481 42.1322C91.8348 42.2196 91.6424 42.3476 91.4824 42.5084C91.3224 42.6692 91.1983 42.8596 91.1175 43.0678C91.0368 43.276 91.0011 43.4977 91.0127 43.7196C91.0127 44.1538 91.1929 44.5703 91.5136 44.8774C91.8344 45.1845 92.2694 45.357 92.723 45.357C93.4076 45.3553 94.0856 45.4849 94.7171 45.738C95.3486 45.9911 95.9208 46.3626 96.4 46.8307C96.8889 47.2895 97.277 47.8374 97.5413 48.442C97.8057 49.0466 97.9409 49.6957 97.9392 50.3512Z" fill="#321E41"/>
<path d="M115.213 45.9301V53.6261C115.213 54.0603 115.033 54.4768 114.712 54.7839C114.391 55.091 113.956 55.2635 113.502 55.2635C113.049 55.2635 112.614 55.091 112.293 54.7839C111.972 54.4768 111.792 54.0603 111.792 53.6261V45.9301C111.792 44.8661 111.351 43.8457 110.565 43.0934C109.779 42.341 108.713 41.9184 107.602 41.9184C106.491 41.9184 105.425 42.341 104.639 43.0934C103.853 43.8457 103.412 44.8661 103.412 45.9301V53.6261C103.412 54.0603 103.232 54.4768 102.911 54.7839C102.59 55.091 102.155 55.2635 101.702 55.2635C101.248 55.2635 100.813 55.091 100.492 54.7839C100.172 54.4768 99.9915 54.0603 99.9915 53.6261V32.0938C99.9915 31.6595 100.172 31.243 100.492 30.9359C100.813 30.6288 101.248 30.4563 101.702 30.4563C102.155 30.4563 102.59 30.6288 102.911 30.9359C103.232 31.243 103.412 31.6595 103.412 32.0938V39.8716C104.666 39.1152 106.12 38.7176 107.602 38.7254C109.606 38.7253 111.529 39.4817 112.954 40.8305C114.378 42.1794 115.19 44.0118 115.213 45.9301Z" fill="#321E41"/>
<path d="M117.18 46.9944C117.18 45.3393 117.693 43.7215 118.656 42.3465C119.618 40.9715 120.985 39.9012 122.584 39.2717C124.183 38.6421 125.941 38.4816 127.635 38.8105C129.329 39.1394 130.883 39.9429 132.1 41.119C133.316 42.2951 134.14 43.7907 134.467 45.416C134.794 47.0413 134.609 48.7229 133.935 50.2473C133.262 51.7718 132.131 53.0703 130.685 53.978C129.24 54.8857 127.545 55.3616 125.816 55.3454C124.675 55.3454 123.545 55.1289 122.491 54.7082C121.438 54.2875 120.482 53.6711 119.679 52.8945C118.876 52.118 118.241 51.1967 117.812 50.184C117.383 49.1713 117.168 48.0872 117.18 46.9944ZM120.6 46.9944C120.6 48.319 121.15 49.5893 122.128 50.5259C123.106 51.4625 124.433 51.9886 125.816 51.9886C127.2 51.9886 128.526 51.4625 129.505 50.5259C130.483 49.5893 131.032 48.319 131.032 46.9944C131.032 45.6699 130.483 44.3996 129.505 43.463C128.526 42.5264 127.2 42.0003 125.816 42.0003C124.433 42.0003 123.106 42.5264 122.128 43.463C121.15 44.3996 120.6 45.6699 120.6 46.9944Z" fill="#321E41"/>
<path d="M159.337 40.9359L154.121 54.1992C154.001 54.5241 153.782 54.8071 153.493 55.0115C153.203 55.2158 152.856 55.3322 152.496 55.3454C152.133 55.344 151.78 55.2322 151.488 55.0262C151.196 54.8201 150.98 54.5305 150.871 54.1992L147.28 45.0295L143.688 54.1992C143.569 54.5241 143.35 54.8071 143.06 55.0115C142.77 55.2158 142.423 55.3322 142.064 55.3454C141.701 55.344 141.348 55.2322 141.056 55.0262C140.764 54.8201 140.548 54.5305 140.439 54.1992L135.223 40.9359C135.142 40.7375 135.105 40.5255 135.114 40.3128C135.122 40.1002 135.176 39.8915 135.272 39.6996C135.369 39.5077 135.505 39.3368 135.673 39.1974C135.841 39.058 136.037 38.9531 136.249 38.8891C136.45 38.8103 136.667 38.7711 136.885 38.7739C137.103 38.7767 137.318 38.8215 137.517 38.9055C137.716 38.9895 137.896 39.1111 138.046 39.263C138.195 39.4149 138.311 39.594 138.387 39.7897L142.064 49.0412L145.655 39.8716C145.729 39.6397 145.861 39.4287 146.04 39.2573C146.219 39.0859 146.439 38.9595 146.681 38.8891L147.194 38.7254H147.536C147.536 38.7471 147.545 38.7679 147.561 38.7833C147.577 38.7986 147.599 38.8072 147.622 38.8072H147.878C148.114 38.889 148.328 39.0193 148.506 39.1891C148.683 39.3589 148.819 39.5639 148.905 39.7897L152.496 48.9594L156.088 39.7078C156.258 39.3067 156.588 38.9866 157.005 38.8178C157.422 38.649 157.891 38.6452 158.311 38.8072C158.526 38.8802 158.724 38.9936 158.892 39.1409C159.061 39.2881 159.197 39.4661 159.293 39.6645C159.388 39.8629 159.441 40.0775 159.449 40.2959C159.457 40.5143 159.419 40.7319 159.337 40.9359Z" fill="#321E41"/>
<path d="M22.9449 28.9826C22.874 25.4169 23.5571 21.8743 24.9532 18.5678C26.3492 15.2614 28.4294 12.2595 31.0686 9.74272C32.8807 8.06584 34.9234 6.63351 37.14 5.48538C33.6958 3.81069 29.8862 2.94094 26.0234 2.94735C20.0294 2.9589 14.237 5.02044 9.69052 8.76026C7.15046 10.8561 5.08244 13.4249 3.61234 16.3103C2.14224 19.1957 1.30081 22.3373 1.13929 25.544C0.926953 28.7403 1.40174 31.9443 2.53429 34.9579C3.66683 37.9715 5.43305 40.7306 7.72373 43.0646L23.8856 59.6027L23.287 53.4623C23.2503 53.1072 23.2923 52.7486 23.4101 52.41C23.528 52.0714 23.7192 51.7605 23.9711 51.4974C24.4886 50.9873 25.1953 50.6931 25.9379 50.6787H26.0234C28.6625 50.6708 31.2854 50.2845 33.805 49.5325C33.0642 49.0246 32.3768 48.4487 31.7527 47.8132C29.0139 45.4208 26.8186 42.5144 25.3033 39.2749C23.7881 36.0354 22.9853 32.532 22.9449 28.9826Z" fill="#CCFF00"/>
<path d="M78.1004 27.0996C77.8322 22.6332 76.3849 18.3049 73.894 14.5199C71.403 10.7348 67.9499 7.61663 63.8576 5.45719C59.7653 3.29774 55.1676 2.16761 50.495 2.17254C45.8223 2.17747 41.2273 3.31731 37.14 5.48538C39.5364 6.58056 41.7085 8.07791 43.5534 9.90646C45.9585 12.1438 47.8536 14.8337 49.1192 17.8069C50.3849 20.78 50.9938 23.9719 50.9075 27.1814C50.869 30.3941 50.1522 33.5661 48.8002 36.5067C47.4482 39.4473 45.489 42.0957 43.0403 44.2927C40.3732 46.6316 37.2286 48.4157 33.805 49.5325C38.5868 53.0485 44.4506 54.9487 50.4799 54.936H50.5654C50.9803 54.935 51.3911 55.0142 51.7731 55.1689C52.1552 55.3237 52.5006 55.5508 52.7887 55.8366C53.0497 56.1272 53.2451 56.4663 53.3628 56.8326C53.4805 57.1989 53.518 57.5845 53.4728 57.9653L52.7887 64.9244L70.6608 46.5032C73.2104 43.921 75.1847 40.8692 76.4637 37.5335C77.7426 34.1978 78.2995 30.6478 78.1004 27.0996Z" fill="#FF294D"/>
<path d="M50.9074 27.1814C50.9938 23.9719 50.3849 20.78 49.1192 17.8069C47.8535 14.8337 45.9585 12.1438 43.5534 9.90646C41.7085 8.07791 39.5364 6.58056 37.14 5.48538C34.9234 6.63351 32.8807 8.06583 31.0686 9.74272C28.4294 12.2595 26.3492 15.2614 24.9532 18.5678C23.5571 21.8743 22.874 25.4169 22.9449 28.9826C22.9853 32.532 23.7881 36.0354 25.3033 39.2749C26.8186 42.5144 29.0139 45.4208 31.7527 47.8132C32.3768 48.4487 33.0642 49.0246 33.805 49.5325C37.2286 48.4157 40.3732 46.6316 43.0403 44.2927C45.489 42.0957 47.4482 39.4473 48.8002 36.5067C50.1521 33.5661 50.8689 30.3941 50.9074 27.1814Z" fill="#CC2525"/>
<path d="M44.4085 10.3158C39.6345 5.60394 33.1011 2.90076 26.2454 2.80096C19.3897 2.70116 12.7734 5.21291 7.85201 9.78366C2.93061 14.3544 0.10723 20.6097 0.00299165 27.1736C-0.101247 33.7374 2.52219 40.072 7.29618 44.7839L25.2538 63.2051L24.3986 54.5267C24.355 54.0531 24.5087 53.5822 24.8262 53.2167C25.1909 52.8679 25.6793 52.6633 26.1944 52.6436H26.2799C33.0556 52.6445 39.5602 50.0958 44.3912 45.547C49.2222 40.9983 51.9924 34.814 52.1046 28.3276C52.1512 24.9844 51.4938 21.6664 50.1715 18.5717C48.8492 15.4771 46.8892 12.6692 44.4085 10.3158ZM43.5534 45.6845C38.8636 49.926 32.6457 52.2721 26.1944 52.2342C25.8836 52.2201 25.5733 52.2711 25.2853 52.3837C24.9972 52.4963 24.7383 52.6677 24.5266 52.886C24.3149 53.1043 24.1555 53.3642 24.0595 53.6476C23.9636 53.9309 23.9334 54.231 23.9711 54.5267L24.6552 61.977L7.63823 44.5383C4.20927 41.0253 1.94507 36.6179 1.13184 31.8732C0.31861 27.1285 0.992853 22.2594 3.06934 17.8815C5.14583 13.5035 8.53135 9.8133 12.798 7.27719C17.0646 4.74109 22.0207 3.47298 27.0399 3.63317C32.0591 3.79335 36.916 5.37463 40.9968 8.17714C45.0775 10.9796 48.1988 14.8775 49.9662 19.3782C51.7336 23.8788 52.0677 28.78 50.9262 33.4624C49.7848 38.1447 47.2191 42.398 43.5534 45.6845Z" fill="#321E41"/>
<path d="M9.60501 9.49711C7.02139 11.6428 4.91535 14.2645 3.41237 17.2059C1.9094 20.1473 1.04025 23.3483 0.856724 26.6182C0.673195 29.888 1.17904 33.1598 2.34412 36.2385C3.50919 39.3172 5.30966 42.1399 7.63822 44.5383L24.6552 61.977L23.9711 54.5267C23.9334 54.231 23.9636 53.9309 24.0595 53.6476C24.1555 53.3642 24.3149 53.1043 24.5266 52.886C24.7383 52.6677 24.9972 52.4963 25.2853 52.3837C25.5733 52.2711 25.8836 52.2201 26.1944 52.2342C32.6457 52.2721 38.8636 49.926 43.5534 45.6845C46.0548 43.4546 48.0604 40.7643 49.45 37.7747C50.8396 34.7851 51.5847 31.5577 51.6406 28.2859C51.6965 25.014 51.062 21.765 49.7753 18.7335C48.4885 15.702 46.5759 12.9503 44.152 10.6433C39.5787 6.36429 33.5011 3.8748 27.1104 3.66277C20.7197 3.45074 14.4767 5.53145 9.60501 9.49711ZM51.164 28.3276C51.1382 31.538 50.4182 34.7085 49.0495 37.6394C47.6808 40.5702 45.693 43.1979 43.2113 45.357C38.6442 49.5143 32.5817 51.8301 26.2799 51.8249H26.1944C25.8108 51.8109 25.4286 51.8769 25.0743 52.0183C24.7199 52.1596 24.4019 52.373 24.1421 52.6436C23.8987 52.9119 23.713 53.2236 23.5956 53.5608C23.4782 53.898 23.4314 54.254 23.458 54.6085L24.0566 60.7489L7.98027 44.2108C5.69268 41.8572 3.92441 39.0861 2.78125 36.0631C1.63809 33.0402 1.14353 29.8275 1.32714 26.6173C1.51075 23.4071 2.36877 20.2654 3.84987 17.38C5.33097 14.4946 7.40472 11.9249 9.94706 9.82459C13.5965 6.82964 18.0713 4.90683 22.8341 4.28702C27.597 3.66721 32.4454 4.37674 36.7974 6.33044C41.1494 8.28413 44.82 11.3989 47.3684 15.3009C49.9168 19.2029 51.2347 23.7261 51.164 28.3276Z" fill="#321E41"/>
<path d="M78.2714 25.9534C77.9869 20.6092 76.071 15.4624 72.7611 11.1507C69.4511 6.83896 64.8926 3.55175 59.6503 1.69637C54.408 -0.159005 48.7124 -0.501016 43.269 0.712718C37.8257 1.92645 32.8739 4.64259 29.0272 8.52459C25.1806 12.4066 22.608 17.2839 21.6284 22.5521C20.6487 27.8203 21.305 33.248 23.5159 38.1625C25.7268 43.0771 29.3952 47.2626 34.0665 50.2005C38.7378 53.1384 44.2068 54.6995 49.7958 54.6904H49.8813C50.1708 54.6941 50.4565 54.754 50.7211 54.8666C50.9857 54.9792 51.2237 55.1421 51.4205 55.3454C51.5887 55.5363 51.7135 55.7586 51.7871 55.9982C51.8607 56.2379 51.8815 56.4895 51.8481 56.7372L50.993 66.3162L70.6608 46.012C73.2938 43.344 75.3276 40.1876 76.6366 36.7376C77.9456 33.2876 78.502 29.6173 78.2714 25.9534ZM70.3187 45.7664L51.506 65.0063L52.3612 56.8191C52.3846 56.4938 52.3379 56.1673 52.2238 55.8601C52.1098 55.5529 51.9308 55.2714 51.6982 55.0333C51.4655 54.7952 51.1841 54.6055 50.8715 54.4761C50.5589 54.3467 50.2219 54.2803 49.8813 54.281C43.4305 54.2923 37.1729 52.1744 32.1627 48.2841C27.1525 44.3937 23.696 38.9688 22.3757 32.9234C21.0554 26.878 21.9519 20.5817 24.9143 15.0952C27.8766 9.60882 32.7236 5.26772 38.6386 2.80339C44.5536 0.339064 51.1751 -0.0978494 57.3873 1.56627C63.5995 3.23039 69.0227 6.89381 72.7431 11.9393C76.4636 16.9847 78.2538 23.1038 77.8122 29.2655C77.3706 35.4272 74.7241 41.2548 70.3187 45.7664Z" fill="#321E41"/>
<path d="M68.1809 7.12283C64.7561 4.2846 60.6643 2.28275 56.2553 1.28845C51.8464 0.294155 47.2515 0.336994 42.8636 1.41331C38.4758 2.48962 34.4254 4.56739 31.059 7.46893C27.6925 10.3705 25.1101 14.0095 23.5326 18.0747C21.9551 22.14 21.4294 26.5106 22.0005 30.8127C22.5715 35.1149 24.2224 39.2206 26.8118 42.7789C29.4013 46.3371 32.8523 49.2419 36.8698 51.245C40.8873 53.2481 45.3517 54.2898 49.8813 54.281C50.2219 54.2803 50.5589 54.3467 50.8715 54.4761C51.1841 54.6055 51.4655 54.7952 51.6982 55.0333C51.9308 55.2714 52.1098 55.5529 52.2238 55.8601C52.3379 56.1673 52.3846 56.4938 52.3612 56.8191L51.506 65.0063L70.3187 45.7664C72.8956 43.1267 74.8896 40.0164 76.1813 36.6215C77.4731 33.2267 78.036 29.6172 77.8364 26.0092C77.6368 22.4011 76.6788 18.8687 75.0197 15.6235C73.3606 12.3783 71.0346 9.48707 68.1809 7.12283ZM69.9767 45.4389L52.1046 63.7782L52.7887 56.8191C52.8323 56.451 52.7939 56.0782 52.676 55.7254C52.558 55.3726 52.3633 55.0477 52.1046 54.7723C51.831 54.4635 51.4903 54.2157 51.1063 54.046C50.7223 53.8763 50.3042 53.7889 49.8813 53.7898H49.7958C42.5531 53.8335 35.5877 51.1261 30.4263 46.2612C25.2649 41.3963 22.3286 34.7706 22.2608 27.8364C22.1715 24.2806 22.8465 20.7451 24.2439 17.4494C25.6414 14.1538 27.7315 11.1683 30.3845 8.67839C35.3228 4.00263 41.9197 1.27971 48.8609 1.05212C55.8021 0.824528 62.5781 3.10896 67.8389 7.45031C70.6713 9.75625 72.9763 12.597 74.6095 15.7949C76.2427 18.9927 77.1691 22.4789 77.3308 26.0352C77.5615 29.5796 77.0276 33.1314 75.7624 36.4697C74.4972 39.8079 72.5278 42.861 69.9767 45.4389Z" fill="#321E41"/>
<path d="M42.8693 26.5265C44.6639 26.5265 46.1187 24.6937 46.1187 22.4329C46.1187 20.172 44.6639 18.3393 42.8693 18.3393C41.0746 18.3393 39.6198 20.172 39.6198 22.4329C39.6198 24.6937 41.0746 26.5265 42.8693 26.5265Z" fill="#CCFF00"/>
<path d="M41.5011 17.9299C40.53 17.9137 39.576 18.1757 38.7615 18.6822C37.9469 19.1887 37.309 19.9166 36.9295 20.7726C36.5501 21.6286 36.4463 22.5736 36.6317 23.4864C36.817 24.3992 37.283 25.2382 37.9697 25.8958C38.6565 26.5533 39.5328 26.9994 40.4862 27.1768C41.4396 27.3543 42.4266 27.255 43.3207 26.8917C44.2147 26.5284 44.975 25.9176 45.504 25.1377C46.0331 24.3579 46.3067 23.4445 46.2898 22.5147C46.2898 21.2988 45.7853 20.1326 44.8872 19.2728C43.9892 18.413 42.7711 17.9299 41.5011 17.9299ZM41.5011 26.7721C40.6182 26.7883 39.7502 26.5525 39.0078 26.0947C38.2654 25.6369 37.6822 24.9778 37.3325 24.2015C36.9828 23.4251 36.8824 22.5667 37.0442 21.7355C37.206 20.9043 37.6226 20.1381 38.241 19.5345C38.8593 18.9309 39.6513 18.5172 40.5161 18.3462C41.381 18.1752 42.2794 18.2546 43.0969 18.5742C43.9144 18.8939 44.614 19.4394 45.1065 20.1412C45.599 20.843 45.8621 21.6693 45.8622 22.5147C45.8624 23.6298 45.4057 24.7005 44.5902 25.4966C43.7747 26.2926 42.6655 26.7506 41.5011 26.7721Z" fill="#321E41"/>
<path d="M41.5011 18.3393C40.6146 18.3231 39.7432 18.5611 38.999 19.0226C38.2548 19.4841 37.6717 20.1481 37.3246 20.9292C36.9775 21.7104 36.8823 22.5731 37.0511 23.4065C37.2199 24.2399 37.6452 25.0059 38.2721 25.6062C38.8991 26.2065 39.6992 26.6136 40.5697 26.7753C41.4401 26.9369 42.3412 26.8457 43.1571 26.5134C43.973 26.1811 44.6665 25.6228 45.1485 24.9103C45.6306 24.1977 45.8791 23.3635 45.8622 22.5147C45.8622 21.4073 45.4027 20.3453 44.5849 19.5622C43.767 18.7792 42.6577 18.3393 41.5011 18.3393ZM41.5011 26.2808C40.9813 26.292 40.4646 26.2023 39.9821 26.017C39.4995 25.8317 39.0612 25.5547 38.6936 25.2027C38.326 24.8507 38.0367 24.4311 37.8431 23.9691C37.6496 23.5071 37.5558 23.0124 37.5675 22.5147C37.4844 21.9792 37.5228 21.4329 37.6802 20.9129C37.8375 20.3929 38.1101 19.9115 38.4794 19.5015C38.8487 19.0915 39.3059 18.7626 39.82 18.5371C40.3341 18.3116 40.8929 18.1949 41.4583 18.1949C42.0238 18.1949 42.5826 18.3116 43.0967 18.5371C43.6107 18.7626 44.068 19.0915 44.4373 19.5015C44.8065 19.9115 45.0791 20.3929 45.2365 20.9129C45.3939 21.4329 45.4323 21.9792 45.3491 22.5147C45.3605 23.0054 45.2694 23.4933 45.0811 23.9498C44.8929 24.4063 44.6112 24.8221 44.2528 25.173C43.8943 25.5238 43.4662 25.8025 42.9937 25.9928C42.5212 26.183 42.0137 26.281 41.5011 26.2808Z" fill="#321E41"/>
<path d="M62.4516 26.7721C64.7657 26.7721 66.6417 24.7927 66.6417 22.351C66.6417 19.9093 64.7657 17.9299 62.4516 17.9299C60.1375 17.9299 58.2615 19.9093 58.2615 22.351C58.2615 24.7927 60.1375 26.7721 62.4516 26.7721Z" fill="#CCFF00"/>
<path d="M61.0834 27.8364C59.9841 27.8364 58.9095 27.5243 57.9954 26.9395C57.0813 26.3548 56.3689 25.5237 55.9482 24.5513C55.5275 23.5788 55.4175 22.5088 55.6319 21.4765C55.8464 20.4442 56.3758 19.496 57.1531 18.7517C57.9305 18.0075 58.9208 17.5007 59.999 17.2953C61.0773 17.09 62.1948 17.1954 63.2105 17.5982C64.2261 18.0009 65.0942 18.683 65.705 19.5582C66.3157 20.4333 66.6417 21.4622 66.6417 22.5147C66.6417 23.9261 66.0561 25.2797 65.0137 26.2777C63.9713 27.2757 62.5576 27.8364 61.0834 27.8364ZM61.0834 18.0937C59.8587 18.0937 58.6842 18.5594 57.8182 19.3886C56.9523 20.2177 56.4658 21.3422 56.4658 22.5147C56.4658 23.6873 56.9523 24.8118 57.8182 25.6409C58.6842 26.47 59.8587 26.9358 61.0834 26.9358C62.3081 26.9358 63.4826 26.47 64.3486 25.6409C65.2146 24.8118 65.7011 23.6873 65.7011 22.5147C65.7011 21.3422 65.2146 20.2177 64.3486 19.3886C63.4826 18.5594 62.3081 18.0937 61.0834 18.0937Z" fill="#321E41"/>
<path d="M45.0926 44.8658C37.482 44.8658 35.3442 39.0529 35.3442 38.971C35.303 38.8915 35.2815 38.804 35.2816 38.7152C35.2818 38.6265 35.3034 38.539 35.3448 38.4596C35.3863 38.3802 35.4464 38.3111 35.5205 38.2578C35.5946 38.2045 35.6806 38.1684 35.7718 38.1523C35.9419 38.1001 36.1266 38.1137 36.2864 38.1902C36.4462 38.2667 36.5684 38.4 36.6269 38.5616C36.7124 38.8891 39.3633 45.7664 49.8813 42.819C50.0596 42.8049 50.238 42.8448 50.3914 42.9329C50.5448 43.021 50.6655 43.153 50.7364 43.3102C50.7663 43.4828 50.7311 43.6599 50.6371 43.8099C50.5431 43.9599 50.3965 44.073 50.2234 44.1289C48.5641 44.6306 46.8326 44.8793 45.0926 44.8658Z" fill="#321E41"/>
</svg>
