<svg width="153" height="34" viewBox="0 0 153 34" fill="none" xmlns="http://www.w3.org/2000/svg">
<path d="M11.3249 28.3312V22.6594H0.0109863V11.3467H11.3249V0.00305176L18.5387 0.0647009C26.5848 0.126351 26.7081 0.157179 29.2977 1.421C31.6406 2.56153 33.7986 4.84258 35.0009 7.43188C36.5423 10.7302 37.2205 15.1073 36.8506 19.2379C36.1107 26.9749 32.7196 31.8453 26.8315 33.5407C25.9374 33.7873 24.7043 33.8489 18.5695 33.9106L11.3249 34.0031V28.3312ZM22.6388 17.0185V11.3467H11.3249V22.6594H22.6388V17.0185ZM77.9137 26.6359C75.0158 25.8036 73.5052 22.7519 73.8135 18.4056C73.9985 16.0321 74.6459 14.3367 75.8174 13.227C77.6362 11.5008 81.2431 11.47 82.5995 13.227C82.8153 13.5044 83.1236 13.9051 83.3086 14.1517L83.6477 14.5833V13.3811V12.1789H85.0966L86.5455 12.2098V19.3303V26.3893L85.0966 26.4509L83.6477 26.5126V24.1082L83.3086 24.5398C83.1236 24.7864 82.8153 25.1871 82.5995 25.4645C81.798 26.605 79.5784 27.1291 77.9137 26.6359ZM81.7364 24.0466C82.1063 23.9233 82.6612 23.5842 83.0003 23.2451L83.586 22.6286V19.4228C83.586 16.4944 83.5552 16.1554 83.2469 15.7238C82.7229 14.984 81.613 14.5216 80.4416 14.5216C79.1468 14.5216 78.1911 15.0148 77.5437 15.9704C77.0813 16.6794 77.0505 16.7719 77.0505 19.392C77.0505 22.0429 77.0505 22.0738 77.5437 22.8136C78.3453 24.0774 80.01 24.5706 81.7364 24.0466ZM94.3142 26.6667C92.0021 26.081 90.584 24.139 90.1833 20.9949C89.4742 15.5697 92.1563 11.5316 96.1331 11.9323C97.6128 12.0865 98.8151 12.8571 99.7092 14.275C99.8633 14.5525 99.9249 13.7202 99.9249 10.4219V6.22971H102.946L102.915 16.3403L102.884 26.4509L101.436 26.5126L99.9866 26.5742L99.9249 25.4029L99.8633 24.2315L99.2467 25.0638C98.1677 26.5434 96.2564 27.1599 94.3142 26.6667ZM98.5993 23.8C99.7708 23.1835 99.9249 22.6594 99.9249 19.2995C99.9249 16.741 99.8941 16.3095 99.5858 15.8163C99.0926 15.0457 97.9211 14.5216 96.6263 14.5216C95.1466 14.5216 94.3142 15.0148 93.6668 16.2787C93.2044 17.1726 93.1736 17.3884 93.1736 19.392C93.1736 21.3956 93.2044 21.6114 93.6668 22.5053C94.3142 23.8 95.2699 24.324 96.8113 24.2315C97.4587 24.1699 98.1986 24.0157 98.5993 23.8ZM120.981 26.6359C119.378 26.2043 118.483 25.4029 117.682 23.8C116.665 21.7347 116.51 18.1898 117.374 15.6313C117.836 14.2442 118.853 13.0112 120.056 12.4564C121.412 11.809 123.324 11.7474 124.464 12.3331C125.173 12.703 126.252 13.8435 126.406 14.1517C126.499 14.3367 126.653 14.3675 126.653 14.3675C126.653 14.3675 126.653 13.8435 126.653 13.2578V12.2098H129.674V26.5434H126.653V25.4953C126.653 24.9097 126.622 24.3856 126.622 24.3856C126.622 24.3856 125.944 25.1563 125.728 25.4029C124.649 26.6359 122.769 27.1291 120.981 26.6359ZM125.451 23.7383C126.499 23.091 126.622 22.5361 126.622 19.3612C126.622 17.0493 126.56 16.4636 126.314 15.9396C125.605 14.5216 123.046 14.0284 121.474 15.0457C120.272 15.8163 119.994 16.4944 119.932 19.0529C119.84 22.0738 120.241 23.1526 121.751 23.9233C122.707 24.3856 124.526 24.324 125.451 23.7383ZM48.7194 26.3276C48.7194 26.3276 48.6578 21.8888 48.6886 16.741L48.7194 7.37023H52.8812C56.6731 7.37023 57.1355 7.40106 58.2761 7.77096C60.5266 8.47993 62.2221 10.2061 62.962 12.5797C64.0102 15.8471 63.7019 20.4092 62.3146 22.8444C61.2356 24.6939 59.6326 25.8652 57.5363 26.3276C56.7347 26.4817 48.7194 26.3276 48.7194 26.3276ZM57.8754 23.2451C59.016 22.6594 59.8792 21.4573 60.1567 20.0393C60.28 19.4536 60.3416 17.974 60.28 16.3095C60.1875 13.1962 59.9717 12.4872 58.7694 11.285C57.8137 10.3294 56.9197 10.1137 54.176 10.1137H51.8331V23.7383H54.3918C56.7964 23.7383 56.9505 23.7075 57.8754 23.2451ZM67.4013 19.392V12.2406H70.2375V26.5742H67.4013V19.392ZM107.231 19.3303L107.262 12.2098L108.711 12.1789H110.16V13.5661C110.16 14.7066 110.222 14.8915 110.376 14.6141C110.499 14.4292 110.746 14.0284 110.961 13.7202C111.516 12.8879 112.626 12.3639 113.921 12.3022L115.031 12.2714V14.9224L113.767 15.0457C111.948 15.1998 111.516 15.3231 110.838 15.9088L110.222 16.402L110.129 26.5126H107.139L107.231 19.3303ZM136.271 26.081C136.21 25.8036 135.655 23.7383 135.007 21.4264C133.713 16.6794 132.603 12.3331 132.603 12.3331C133.589 12.3331 134.144 12.3331 135.408 12.3331L136.056 14.984C136.425 16.4328 137.011 18.868 137.35 20.3784C137.689 21.8888 138.059 23.2143 138.121 23.3684C138.213 23.5225 138.553 22.5053 139.015 20.9024C139.416 19.4228 140.156 16.8643 140.618 15.2614L141.45 12.3331H144.225L144.811 14.3675C145.119 15.4772 145.859 18.0049 146.414 19.9777C146.969 21.9505 147.493 23.4917 147.554 23.4301C147.616 23.3684 147.924 22.1971 148.233 20.8099C148.541 19.4228 149.127 16.9876 149.527 15.3231L150.267 12.3022L152.98 12.2714C152.98 12.2714 152.302 14.8915 150.915 20.0701C150.576 21.334 150.082 23.2143 149.805 24.2623C149.527 25.3104 149.096 26.5126 149.096 26.5126C147.924 26.5434 147.092 26.5434 145.828 26.5434L144.348 21.334C143.516 18.4672 142.807 16.1862 142.745 16.2478C142.684 16.3095 142.221 17.8507 141.697 19.6386C141.173 21.4264 140.526 23.7383 140.217 24.7247L139.662 26.5434H136.395L136.271 26.081Z" fill="#1D1D1D"/>
<path fill-rule="evenodd" clip-rule="evenodd" d="M68.4187 5.85986H69.0661C69.8676 5.85986 70.5459 6.50719 70.5459 7.33947V8.14092C70.5459 8.94237 69.8985 9.62052 69.0661 9.62052H68.4187C67.6172 9.62052 66.939 8.97319 66.939 8.14092V7.33947C66.939 6.50719 67.6172 5.85986 68.4187 5.85986Z" fill="#1D1D1D"/>
</svg>
