<svg width="84" height="102" viewBox="0 0 84 102" fill="none" xmlns="http://www.w3.org/2000/svg">
<g clip-path="url(#clip0_91_483)">
<path fill-rule="evenodd" clip-rule="evenodd" d="M110.46 77.75C110.63 77.99 110.8 78.23 110.98 78.44C110.89 78.52 110.69 78.69 110.77 78.78C109.98 78.45 109.28 78 108.57 77.6C106.73 76.38 104.89 75.2 103.06 74.01C99.82 71.9 96.57 69.83 93.4 67.61C91.4 66.21 89.39 64.79 87.39 63.4C81.98 59.61 76.54 55.77 71.18 51.85C65.98 48.07 60.82 44.29 55.69 40.54C50.53 36.76 45.39 33.01 40.2 29.23C40.08 29.14 39.94 29.02 39.8 28.91C39.21 28.41 38.63 27.97 37.38 29.05C36.67 29.67 36.65 30.23 36.65 30.74C36.65 30.93 36.65 31.09 36.61 31.24C36.39 31.94 36.68 33.26 37.22 33.65C41.4 36.75 45.64 39.84 49.91 42.94C54.17 46.05 58.37 49.13 62.59 52.23C63.86 53.2 65.06 54.27 66.25 55.27C66.92 55.86 67.57 56.43 68.24 56.98V56.81C74.83 62.68 81.51 68.61 88.17 74.57C88.17 74.57 88.09 74.75 88.07 74.81C88 74.91 87.97 74.97 87.97 75.1C86.82 74.73 85.63 74.35 84.58 73.9C76.72 70.35 68.89 66.78 61.1 63.22C53.27 59.65 45.46 56.06 37.62 52.54C34.25 50.96 30.7 49.39 27.25 47.89C26.09 47.33 24.92 47.33 24.2 48.62C23.61 49.65 23.89 52.68 24.84 53.59C24.92 53.68 25.02 53.75 25.1 53.8C25.65 54.26 26.25 54.76 26.93 55.23C29.38 56.97 31.82 58.69 34.29 60.42C36.75 62.12 39.18 63.84 41.65 65.61L53.46 74.02C55.29 75.36 57.14 76.73 58.99 78.1C60.84 79.47 62.69 80.83 64.52 82.18C65.84 83.11 66.95 84.03 68.17 85.04C68.13 85.08 68.08 85.16 68.01 85.26C67.96 85.34 67.91 85.42 67.85 85.48C67.55 85.31 67.24 85.19 66.96 85.04C66.68 84.89 66.37 84.77 66.07 84.6L14.59 59.35C12.12 58.21 9.71997 57.21 7.20997 56.25C5.67997 55.66 4.19997 56.44 4.21997 57.99C4.19997 59.73 4.19997 61.61 5.72997 63.02C6.35997 63.57 6.94997 64.15 7.53997 64.74C8.12997 65.33 8.72997 65.93 9.36997 66.44C9.98997 66.92 10.58 67.43 11.21 67.93C14.58 70.68 17.88 73.36 21.13 76.11L34.16 87.06C35.47 88.16 36.75 89.46 38.05 90.77C37.33 90.89 36.88 90.77 36.35 90.52C33.95 89.55 31.56 88.61 29.18 87.67C25.68 86.29 22.15 84.93 18.65 83.43C13.95 81.49 9.51997 79.27 5.00997 76.96C4.39997 76.66 3.99997 76.07 3.58997 75.46C3.37997 75.17 3.18997 74.87 2.95997 74.6C0.469967 73.67 -0.670033 74.66 0.439967 77.29C1.08997 78.8 2.37997 80.11 3.68997 81.04C6.06997 82.61 8.60997 84 11.18 85.26C14.55 86.84 18 88.3 21.46 89.79C23.04 90.49 24.65 91.17 26.28 91.87C29.55 93.29 32.84 94.74 36.1 96.06C38.18 96.92 40.32 97.72 42.42 98.52C44.52 99.32 46.66 100.12 48.74 100.98C50.27 101.57 51.51 101.87 52.42 100.21C53.73 98.06 53.66 97.22 51.84 95.71L19.51 68.89C19.21 68.64 18.94 68.37 18.65 68.07C18.38 67.8 18.1 67.53 17.79 67.26C17.88 67.18 17.93 67.1 18 67C18.05 66.92 18.1 66.84 18.21 66.74C18.84 67.06 19.42 67.41 20.03 67.75C20.61 68.1 21.22 68.44 21.84 68.76C26.89 71.11 31.94 73.45 36.99 75.98C38.31 76.64 39.62 77.34 40.93 78C42.22 78.68 43.53 79.38 44.87 80.02C45.62 80.39 46.45 80.76 47.26 81.15C48.07 81.54 48.91 81.87 49.65 82.28C51.13 82.99 52.58 83.72 54.02 84.43C56.55 85.67 59.06 86.94 61.59 88.15C62.89 88.79 64.24 89.41 65.6 90.03C67.28 90.8 68.97 91.57 70.63 92.39C73.6 93.88 76.58 95.41 79.55 96.89C82.52 98.38 85.51 99.93 88.47 101.39C89.62 101.95 90.54 101.66 91.32 100.84C93.53 98.57 93.58 97.86 90.96 95.79C90.76 95.65 90.6 95.51 90.44 95.38C90.26 95.22 90.11 95.08 89.9 94.99C84.58 91.16 79.42 87.34 74.19 83.43C69.77 80.19 65.35 76.94 60.91 73.72C56.47 70.5 52.05 67.25 47.63 64.01C47.19 63.69 46.65 63.29 46.32 62.91C47.93 63.23 49.37 63.9 50.77 64.56C52.09 65.13 53.41 65.71 54.75 66.31C58.08 67.76 61.41 69.21 64.7 70.78C64.98 70.93 65.27 71.03 65.55 71.17C73.51 74.94 81.56 78.75 90.01 81.23C92.96 82.11 94.25 81.7 95.49 78.89C95.77 78.18 95.82 77.47 95.85 76.69C95.88 76.32 95.9 75.94 95.95 75.55C96.17 75.67 96.39 75.83 96.63 75.97C97.15 76.3 97.73 76.65 98.4 77.02C101.65 79.05 104.94 81.04 108.26 83.05C111.58 85.06 114.84 87.07 118.12 89.09C119.45 89.85 120.54 89.76 121.59 88.85C123.52 87.02 123.5 85.47 121.45 83.1C119.67 81.05 117.89 79 116.1 76.94C107.17 66.66 98.23 56.31 89.02 46.34C82.29 39.04 75.19 31.94 68.11 24.87C65.8 22.57 63.51 20.29 61.22 17.98C58.41 15.14 55.61 12.33 52.77 9.51001C49.93 6.69001 47.14 3.88001 44.32 1.04001C44.07 0.75001 43.83 0.57001 43.49 0.31001C43.37 0.22001 43.25 0.13001 43.11 0.0100098C42.9 0.31001 42.63 0.63001 42.36 0.90001C41.89 1.39001 41.48 1.86001 41.44 2.32001C41.54 3.60001 41.93 5.18001 42.78 6.16001C48.63 12.31 54.66 18.31 60.71 24.28C62.02 25.65 63.45 26.99 64.86 28.3C65.81 29.16 66.71 30.02 67.61 30.88C67.84 31.15 68.1 31.35 68.33 31.62C72.12 35.45 75.86 39.21 79.56 43.11C82.16 45.7 84.64 48.37 87.13 51.06L95.36 59.95C98.1 62.93 100.66 65.87 103.31 68.93C104.47 70.27 105.57 71.58 106.69 72.92C107.81 74.26 108.91 75.57 110.07 76.91C110.24 77.11 110.42 77.35 110.59 77.6L110.45 77.76L110.46 77.75ZM95.68 55.45C95.68 55.45 95.85 55.46 95.96 55.37L109.63 71.12L109.43 71.29L95.68 55.45Z" fill="#CADB2B"/>
</g>
<defs>
<clipPath id="clip0_91_483">
<rect width="123" height="101.66" fill="white"/>
</clipPath>
</defs>
</svg>
