<svg width="88" height="175" viewBox="0 0 88 175" fill="none" xmlns="http://www.w3.org/2000/svg">
<g clip-path="url(#clip0_91_493)">
<mask id="mask0_91_493" style="mask-type:luminance" maskUnits="userSpaceOnUse" x="-56" y="30" width="112" height="115">
<path d="M27.9932 30.3944L-55.9797 55.6939L-28.7633 144.476L55.2096 119.177L27.9932 30.3944Z" fill="white"/>
</mask>
<g mask="url(#mask0_91_493)">
<path fill-rule="evenodd" clip-rule="evenodd" d="M45.7908 107.625C46.0637 103.305 45.3599 99.1758 44.1033 95.0792C43.9405 94.5441 43.7719 94.0056 43.5424 93.594C41.9047 89.0254 39.3025 84.9897 36.6142 80.98C33.7685 76.9064 31.3308 72.6892 29.4644 68.0839C26.5886 60.9584 22.1459 55.0002 15.7797 50.579C9.22404 46.1603 1.92963 44.9766 -5.38317 43.7973C-7.20878 43.4982 -9.03669 43.19 -10.8416 42.8566C-12.1804 43.179 -13.5123 43.451 -14.8753 43.6964C-17.9539 44.2785 -21.0131 44.8801 -23.6866 46.2448C-33.5177 51.3126 -41.6876 58.4832 -46.4482 68.9758C-47.4792 71.1764 -48.3518 73.5429 -48.6533 75.8721C-49.2746 80.5349 -48.7251 85.2965 -47.0241 89.7083C-46.2018 92.0454 -45.0623 94.2854 -43.9228 96.5254L-43.761 96.8805C-42.6147 99.226 -41.4179 101.657 -39.9831 103.81C-35.7681 110.184 -29.6038 113.836 -22.8367 116.62C-21.8775 116.965 -20.9367 117.432 -19.9753 117.864C-18.4843 118.562 -16.983 119.281 -15.401 119.659C-8.10251 121.563 -0.857858 123.271 6.50402 124.94C7.60346 125.221 8.73516 125.359 9.90477 125.511C10.9583 125.648 12.0429 125.773 13.0976 126.012C17.4817 126.928 21.8614 127.475 26.3715 127.313C36.8177 126.859 45.2654 118.32 45.8368 107.575L45.7977 107.613L45.7908 107.625ZM-42.1461 70.5207C-36.5136 62.1143 -29.5059 55.6614 -19.5993 52.6748C-5.73704 48.8479 6.90751 51.3983 17.7762 61.6267C20.5184 64.2105 22.5614 67.5889 24.001 71.1488C26.5624 77.6789 29.8997 83.7027 33.8911 89.3182C38.3877 95.4727 40.8512 102.373 40.5483 110.246C40.4067 115.698 36.6737 118.817 32.2068 119.816C27.5214 120.879 22.9718 120.12 18.2647 119.298C6.45293 117.211 -5.20448 114.493 -16.7384 111.037C-25.8024 108.255 -33.4053 102.767 -38.1507 93.9746C-40.2382 90.1249 -42.2876 86.0563 -43.3729 81.8058C-44.2735 78.08 -44.565 74.1761 -42.1645 70.5252L-42.1427 70.515L-42.1461 70.5207ZM-29.3092 106.496C-27.7824 108.51 -24.3527 110.409 -22.7887 110.285C-24.5335 109.372 -26.1725 108.375 -27.8046 107.405C-28.3226 107.107 -28.8234 106.782 -29.3092 106.496ZM17.7964 53.8712L17.5778 54.2851C15.0429 52.7077 12.4955 51.0992 9.93194 49.4265C10.0273 49.3983 10.1251 49.2624 10.1849 49.1114L17.8021 53.8747L17.7964 53.8712Z" fill="#CADB2B"/>
</g>
</g>
<defs>
<clipPath id="clip0_91_493">
<rect width="128" height="127" fill="white" transform="translate(-22.3525) rotate(31.1252)"/>
</clipPath>
</defs>
</svg>
